<svg width="83" height="83" viewBox="0 0 83 83" fill="none" xmlns="http://www.w3.org/2000/svg">
<circle cx="41.5" cy="41.5" r="41.5" fill="#FF3811" fill-opacity="0.1"/>
<circle cx="41.5" cy="41.5" r="27.9795" fill="#FF3811"/>
<path d="M35.9055 49.3196C34.6839 49.3149 33.6328 49.0142 32.7521 48.4176C31.8762 47.821 31.2015 46.9569 30.728 45.8253C30.2592 44.6937 30.0272 43.3324 30.032 41.7415C30.032 40.1553 30.2663 38.8035 30.7351 37.6861C31.2086 36.5687 31.8833 35.7187 32.7592 35.1364C33.6399 34.5492 34.6887 34.2557 35.9055 34.2557C37.1224 34.2557 38.1688 34.5492 39.0447 35.1364C39.9254 35.7235 40.6025 36.5758 41.076 37.6932C41.5495 38.8059 41.7839 40.1553 41.7791 41.7415C41.7791 43.3371 41.5424 44.7008 41.0689 45.8324C40.6001 46.964 39.9278 47.8281 39.0518 48.4247C38.1759 49.0213 37.1271 49.3196 35.9055 49.3196ZM35.9055 46.7699C36.7389 46.7699 37.4041 46.3509 37.9013 45.5128C38.3984 44.6747 38.6446 43.4176 38.6399 41.7415C38.6399 40.6383 38.5263 39.7197 38.299 38.9858C38.0765 38.2519 37.7592 37.7003 37.3473 37.331C36.9401 36.9616 36.4595 36.777 35.9055 36.777C35.0769 36.777 34.4141 37.1913 33.9169 38.0199C33.4197 38.8485 33.1688 40.089 33.1641 41.7415C33.1641 42.8589 33.2753 43.7917 33.4979 44.5398C33.7251 45.2831 34.0447 45.8419 34.4567 46.2159C34.8686 46.5852 35.3516 46.7699 35.9055 46.7699ZM49.3484 49.1989C48.2878 49.1989 47.3432 49.0166 46.5146 48.652C45.6907 48.2827 45.0397 47.776 44.5614 47.1321C44.0879 46.4834 43.8441 45.7353 43.8299 44.8878H46.9265C46.9454 45.2429 47.0614 45.5554 47.2745 45.8253C47.4923 46.0904 47.7811 46.2964 48.141 46.4432C48.5008 46.59 48.9057 46.6634 49.3555 46.6634C49.8242 46.6634 50.2385 46.5805 50.5984 46.4148C50.9582 46.2491 51.2399 46.0194 51.4435 45.7259C51.6471 45.4323 51.7489 45.0937 51.7489 44.7102C51.7489 44.322 51.64 43.9787 51.4222 43.6804C51.2092 43.3774 50.9014 43.1406 50.4989 42.9702C50.1012 42.7997 49.6277 42.7145 49.0785 42.7145H47.7219V40.456H49.0785C49.5425 40.456 49.9521 40.3755 50.3072 40.2145C50.667 40.0535 50.9464 39.831 51.1452 39.5469C51.3441 39.258 51.4435 38.9219 51.4435 38.5384C51.4435 38.1738 51.3559 37.8542 51.1808 37.5795C51.0103 37.3002 50.7688 37.0824 50.4563 36.9261C50.1486 36.7699 49.7887 36.6918 49.3768 36.6918C48.9601 36.6918 48.579 36.7675 48.2333 36.919C47.8877 37.0658 47.6107 37.2765 47.4023 37.5511C47.194 37.8258 47.0827 38.1477 47.0685 38.517H44.1211C44.1353 37.679 44.3744 36.9403 44.8384 36.3011C45.3024 35.6619 45.9274 35.1624 46.7134 34.8026C47.5041 34.438 48.3967 34.2557 49.391 34.2557C50.3948 34.2557 51.2731 34.438 52.0259 34.8026C52.7788 35.1671 53.3635 35.6596 53.7802 36.2798C54.2016 36.8954 54.4099 37.5866 54.4052 38.3537C54.4099 39.1681 54.1566 39.8475 53.6452 40.392C53.1386 40.9366 52.4781 41.2822 51.6637 41.429V41.5426C52.7338 41.6799 53.5482 42.0516 54.1069 42.6577C54.6703 43.259 54.9497 44.0118 54.945 44.9162C54.9497 45.7448 54.7106 46.4811 54.2276 47.125C53.7494 47.7689 53.0889 48.2756 52.2461 48.6449C51.4033 49.0142 50.4374 49.1989 49.3484 49.1989Z" fill="white"/>
</svg>
