<svg width="83" height="83" viewBox="0 0 83 83" fill="none" xmlns="http://www.w3.org/2000/svg">
<circle cx="41.5" cy="41.5" r="41.5" fill="#FF3811" fill-opacity="0.1"/>
<circle cx="41.5" cy="41.5" r="27.9795" fill="#FF3811"/>
<path d="M36.8821 49.3196C35.6605 49.3149 34.6094 49.0142 33.7287 48.4176C32.8527 47.821 32.178 46.9569 31.7045 45.8253C31.2358 44.6937 31.0038 43.3324 31.0085 41.7415C31.0085 40.1553 31.2429 38.8035 31.7116 37.6861C32.1851 36.5687 32.8598 35.7187 33.7358 35.1364C34.6165 34.5492 35.6652 34.2557 36.8821 34.2557C38.099 34.2557 39.1454 34.5492 40.0213 35.1364C40.902 35.7235 41.5791 36.5758 42.0526 37.6932C42.526 38.8059 42.7604 40.1553 42.7557 41.7415C42.7557 43.3371 42.5189 44.7008 42.0455 45.8324C41.5767 46.964 40.9044 47.8281 40.0284 48.4247C39.1525 49.0213 38.1037 49.3196 36.8821 49.3196ZM36.8821 46.7699C37.7154 46.7699 38.3807 46.3509 38.8778 45.5128C39.375 44.6747 39.6212 43.4176 39.6165 41.7415C39.6165 40.6383 39.5028 39.7197 39.2756 38.9858C39.053 38.2519 38.7358 37.7003 38.3239 37.331C37.9167 36.9616 37.4361 36.777 36.8821 36.777C36.0535 36.777 35.3906 37.1913 34.8935 38.0199C34.3963 38.8485 34.1454 40.089 34.1406 41.7415C34.1406 42.8589 34.2519 43.7917 34.4744 44.5398C34.7017 45.2831 35.0213 45.8419 35.4332 46.2159C35.8452 46.5852 36.3281 46.7699 36.8821 46.7699ZM51.2766 34.4545V49H48.2013V37.3736H48.1161L44.7852 39.4616V36.7344L48.386 34.4545H51.2766Z" fill="white"/>
</svg>
