<svg width="83" height="83" viewBox="0 0 83 83" fill="none" xmlns="http://www.w3.org/2000/svg">
<circle cx="41.5" cy="41.5" r="41.5" fill="#FF3811" fill-opacity="0.1"/>
<circle cx="41.5" cy="41.5" r="27.9795" fill="#FF3811"/>
<path d="M36.1985 49.3196C34.9769 49.3149 33.9258 49.0142 33.0451 48.4176C32.1692 47.821 31.4944 46.9569 31.021 45.8253C30.5522 44.6937 30.3202 43.3324 30.3249 41.7415C30.3249 40.1553 30.5593 38.8035 31.0281 37.6861C31.5015 36.5687 32.1763 35.7187 33.0522 35.1364C33.9329 34.5492 34.9817 34.2557 36.1985 34.2557C37.4154 34.2557 38.4618 34.5492 39.3377 35.1364C40.2184 35.7235 40.8955 36.5758 41.369 37.6932C41.8424 38.8059 42.0768 40.1553 42.0721 41.7415C42.0721 43.3371 41.8353 44.7008 41.3619 45.8324C40.8931 46.964 40.2208 47.8281 39.3448 48.4247C38.4689 49.0213 37.4201 49.3196 36.1985 49.3196ZM36.1985 46.7699C37.0318 46.7699 37.6971 46.3509 38.1942 45.5128C38.6914 44.6747 38.9376 43.4176 38.9329 41.7415C38.9329 40.6383 38.8192 39.7197 38.592 38.9858C38.3694 38.2519 38.0522 37.7003 37.6403 37.331C37.2331 36.9616 36.7525 36.777 36.1985 36.777C35.3699 36.777 34.707 37.1913 34.2099 38.0199C33.7127 38.8485 33.4618 40.089 33.457 41.7415C33.457 42.8589 33.5683 43.7917 33.7908 44.5398C34.0181 45.2831 34.3377 45.8419 34.7496 46.2159C35.1616 46.5852 35.6445 46.7699 36.1985 46.7699ZM44.2649 49V46.7841L49.4425 41.9901C49.8828 41.5639 50.2521 41.1804 50.5504 40.8395C50.8535 40.4986 51.0831 40.1648 51.2393 39.8381C51.3956 39.5066 51.4737 39.1491 51.4737 38.7656C51.4737 38.3395 51.3767 37.9725 51.1825 37.6648C50.9884 37.3523 50.7232 37.1132 50.3871 36.9474C50.0509 36.777 49.6697 36.6918 49.2436 36.6918C48.7985 36.6918 48.4103 36.7817 48.0788 36.9616C47.7474 37.1416 47.4917 37.3996 47.3118 37.7358C47.1319 38.072 47.0419 38.4721 47.0419 38.9361H44.1229C44.1229 37.9844 44.3383 37.1581 44.7692 36.4574C45.2 35.7566 45.8037 35.2145 46.5803 34.831C47.3568 34.4474 48.2517 34.2557 49.2649 34.2557C50.3066 34.2557 51.2133 34.4403 51.9851 34.8097C52.7616 35.1742 53.3653 35.6809 53.7962 36.3295C54.227 36.9782 54.4425 37.7216 54.4425 38.5597C54.4425 39.1089 54.3336 39.651 54.1158 40.1861C53.9027 40.7211 53.5215 41.3153 52.9723 41.9688C52.4231 42.6174 51.6489 43.3963 50.6499 44.3054L48.5263 46.3864V46.4858H54.6342V49H44.2649Z" fill="white"/>
</svg>
